# xmcd
#
# Track frame offsets:
#	150
#	11652
#	27610
#	41472
#	52282
#	70005
#	86310
#	97990
#	117542
#	129830
#	164922
#	187135
#	198035
#	214470
#	222200
#	239120
#
# Disc length: 3437 seconds
#
# Revision: 0
# Processed by: cddbd v1.5.2PL0 Copyright (c) Steve Scherf et al.
# Submitted via: audiograbber 1.83.01
#
DISCID=f20d6b10
DTITLE=Daddy Cool - Eagle Rock
DYEAR=1900
DGENRE=
TTITLE0=Daddy Cool
TTITLE1=Come Back Again
TTITLE2=School Days
TTITLE3=Good Rockin Daddy
TTITLE4=Zoop Bop Gold Cadillac
TTITLE5=Hi Honey Ho
TTITLE6=Bom Bom
TTITLE7=I'll Never Smile Again
TTITLE8=One Night
TTITLE9=Shake Rattle 'n' Roll
TTITLE10=Duke Of Earl
TTITLE11=Flip
TTITLE12=Teenage Blues
TTITLE13=Lollypop
TTITLE14=At The Rockhouse
TTITLE15=Eagle Rock
EXTD=16 Track Version
EXTT0=
EXTT1=
EXTT2=
EXTT3=
EXTT4=
EXTT5=
EXTT6=
EXTT7=
EXTT8=
EXTT9=
EXTT10=
EXTT11=
EXTT12=
EXTT13=
EXTT14=
EXTT15=
PLAYORDER=
